<svg xmlns="http://www.w3.org/2000/svg" viewBox="0 0 135.34 97.37"><defs><style>.cls-1{fill:#b5292a;}.cls-1,.cls-2,.cls-3{fill-rule:evenodd;}.cls-2{fill:#181714;opacity:0.2;}.cls-3{fill:#fff;}</style></defs><title>Ativo 2</title><g id="Camada_2" data-name="Camada 2"><g id="Camada_1-2" data-name="Camada 1"><path class="cls-1" d="M122.67,29.62C84.55-17.95,19.13-6.31,8.77,50.85c-2.13,11.72-1.16,35-1.16,35l6.08,3s6.29-14.7,11-23.71a87.85,87.85,0,0,1,8.7-13.27c1.34-1.69,2.21-2.66,2.21-2.66,1.59,8.08,9.86,41.25,16.22,36.24Z"/><path class="cls-2" d="M35.6,49.26A102.71,102.71,0,0,1,49,36.45c3-2.25-9.57,16.66,10.59,42.9l-7.77,6.13C45.46,90.49,37.21,57.38,35.6,49.26Z"/><path class="cls-2" d="M36.88,55c.69,1.6,3.33,7.63,6,10.85,3.14,3.74,9.47,4.59,9.47,4.59S48.85,76.89,45,79.73C41.67,73,38.64,62.17,36.88,55Z"/><path class="cls-3" d="M40.41,75.44C36.32,83.31,50.16,100.77,59,96.78,80.64,87,117.5,64.44,132.72,47.3c7.9-8.9-3.54-28.48-14.5-29.86C107.53,16.09,47.48,61.8,40.41,75.44Z"/><path class="cls-2" d="M135.12,37c-17.54,17.67-57.55,44.19-76.48,50.2-6.07,1.92-13.39-4.07-18.17-11.89a.39.39,0,0,0-.06.11C36.32,83.31,50.16,100.77,59,96.78,80.64,87,117.5,64.44,132.72,47.3,135.12,44.59,135.74,40.9,135.12,37Z"/><path class="cls-3" d="M16.73,96.74a13.62,13.62,0,0,1-7-26.3,13.62,13.62,0,0,1,7.05,26.3Z"/><path class="cls-2" d="M.92,78.41A13.85,13.85,0,0,0,.48,87a13.41,13.41,0,0,0,16.25,9.74A13.29,13.29,0,0,0,26.36,82.8a13,13,0,0,1-8.75,8A13.4,13.4,0,0,1,1.36,81,14.2,14.2,0,0,1,.92,78.41Z"/><path class="cls-2" d="M43.54,88.84A20.06,20.06,0,0,0,57,92.31c8.25-.87,49-24.2,58.58-29.71C98,76.09,74.56,89.74,59,96.78,54.07,99,47.6,94.57,43.54,88.84Z"/></g></g></svg>