<?xml version="1.0" encoding="utf-8"?>
<!-- Generator: Adobe Illustrator 26.2.1, SVG Export Plug-In . SVG Version: 6.00 Build 0)  -->
<svg version="1.1" xmlns="http://www.w3.org/2000/svg" xmlns:xlink="http://www.w3.org/1999/xlink" x="0px" y="0px"
	 viewBox="0 0 672.43 586.29" style="enable-background:new 0 0 672.43 586.29;" xml:space="preserve">
<style type="text/css">
	.st0{fill:#D4AA6A;}
	.st1{fill:#BF8348;}
	.st2{fill:#353237;}
	.st3{fill:#231F20;}
	.st4{fill:#4B474D;}
	.st5{fill:#A7A9AC;}
</style>
<g id="cores">
	<path class="st0" d="M91.06,468.05c0,0-85.66-104.89-80.27-125.56C14.7,327.47,109.36,190.33,216.26,94
		c40.09-36.12,80.68-67.32,120.62-83c37.06,23.06,93.33,65.85,133.5,94.56c24.52,17.52,43.61,29.27,47.05,29.64
		c6.28,0.3,84.46-17.31,115-25.39c30.54-8.08,89.83,35.04-194.04,269.5C227.28,550.91,184.16,570.67,176.97,572.47
		c-7.19,1.79-98.82,0-113.19-5.39C49.41,561.69,44.34,527.34,91.06,468.05z"/>
	<path class="st1" d="M98.82,476.35c0,0-30.54,39.53-32.34,53c-1.8,13.47,1.89,27.41,6.38,27.41c4.49,0,51.11-23.82,51.11-23.82
		l8.98-10.78L98.82,476.35z"/>
	<path class="st1" d="M507.56,317.34c-26.95,19.76-70.07,44.02-98.82,59.29C380,391.9,137.45,535.64,108.7,555.4
		c-28.75,19.77,58.39,9.88,70.97,4.49C192.25,554.5,400.66,421.55,507.56,317.34z"/>
	<path class="st2" d="M132.96,522.16l-22.59-26.94c0,0,86.37-36.85,221.12-188.67c109.96-123.89,136.99-180.1,143.21-196.59
		c0.33-0.89-1.96-1.83-1.73-2.5c0.72-2.11,3.48-2.92,3.48-2.92s32.02,25.03,36.51,25.03c4.49,0,25.15,4.49,13.47,31.44
		c-11.68,26.95-74.56,140.14-167.09,226.38C359.34,387.41,167.99,503.3,132.96,522.16z"/>
	<path class="st3" d="M132.96,522.16l-22.59-26.94c0,0,86.37-36.85,221.12-188.67c52.25-58.87,12.31,18.45,27.5,28.76
		c16.77,11.39,84.36-39.04,50.31,0.13c-15.45,17.78-32.16,35.37-49.96,51.96C359.34,387.41,167.99,503.3,132.96,522.16z"/>
	<path class="st4" d="M456.96,144.57c10.55-17.56,15.49-28.66,17.73-34.6c0.33-0.89-1.96-1.83-1.73-2.5
		c0.72-2.11,3.48-2.92,3.48-2.92s32.02,25.03,36.51,25.03c4.49,0,25.15,4.49,13.47,31.44c-1.83,4.22-4.91,10.55-9.16,18.55
		C494.34,222.75,438.23,175.75,456.96,144.57z"/>
	<path class="st1" d="M137.45,234.69c17.61-29.63,71.51-79.04,94.33-97.02c20.51-16.17,90.73-84.44,98.82-94.33
		c8.08-9.88,54.8,31.44,41.32,79.95c-13.47,48.51-114.99,82.65-177.87,74.56C187.75,192.47,130.62,246.17,137.45,234.69z"/>
	<path class="st1" d="M10.43,349.69c-0.66-5.29,17.97-9.88,51.21-49.41c9.81-11.67,19.58-25.06,34.49-35.95
		c56.6-41.32-22.46,35.93-13.48,76.36c8.98,40.43,101.51,100.62,110.5,99.72c8.98-0.9-77.27,60.2-81.76,52.12
		C106.89,484.44,9.53,364.96,10.43,349.69z"/>
	<path class="st1" d="M370.12,380.22l69.17-79.05c0,0,32.34-38.63,33.24-43.12c0.9-4.49-3.59,28.75-39.53,72.77
		c-4.49,6.29,41.32-17.97,41.32-17.97s-18.86,25.15-30.54,29.65C432.1,346.98,370.12,380.22,370.12,380.22z"/>
	<g>
		<path class="st5" d="M304.8,413.24c-1.66,1.69-4.47,1.34-6-0.16c-0.68-0.67-1.31-1.46-1.95-2.42c-0.38-0.63-1.06-1.21-1.69-1.33
			c-0.88-0.2-4.2-0.88-4.91-0.17c-0.21,0.21-0.29,0.46-0.24,0.84c0.98,6.62,1.41,12.19-0.21,13.84c-1.21,1.23-3.09,1.45-4.52,0.46
			c-0.29-0.21-0.43-0.67-0.3-1.04c0.85-2.99,0.61-7.22-0.02-11.99c-0.13-0.88-0.72-1.21-1.48-0.87c-1.08,0.51-2.13,1.24-2.92,2.04
			c-1.12,1.14-1.36,2.74-0.98,3.62c0.13,0.29,0.05,0.46-0.16,0.67c-0.83,0.51-1.89,0.23-2.69-0.56c-1.4-1.37-1.93-4.3,1.15-7.43
			c1.37-1.4,3.04-2.33,4.88-2.85c0.34-0.08,0.59-0.26,0.79-0.47c0.29-0.3,0.46-0.72,0.37-1.22c-1.86-11.56-4.07-24.2,1.33-29.7
			c1.54-1.57,3.88-1.67,5.58-0.09c4.48,4.07,5.1,26.79,14.7,36.31c0.3,0.29,0.34,0.67,0.22,1.04
			C305.5,412.35,305.17,412.86,304.8,413.24z M287.04,378.26c-0.09-0.25-0.17-0.25-0.29-0.12c0,0-0.04,0.04-0.08,0.08
			c-1.74,2.95,0.69,16.05,2.45,26.19c0.09,0.59,0.51,0.92,1.1,1c1.13,0.11,2.31,0.36,3.4,0.6c0.25,0.08,0.46,0.04,0.54-0.05
			c0.12-0.13,0.12-0.3-0.01-0.59C291.03,397.89,288.4,384.33,287.04,378.26z"/>
		<path class="st5" d="M295.1,369.64c0.04-0.04,0.12-0.13,0.17-0.17c1.95-1.99,4.22-1.42,5.24-0.09c1.87,2.5,6.03,22.21,7.6,24.25
			c0.42,0.58,0.85,0.83,1.22,0.45c1.91-1.95,0.77-7.47-0.09-10.23l1.37-1.4c1.68,4.98,3.25,12.26-0.94,16.53
			c-1.29,1.31-3.42,1.96-5.16,0c-3.31-3.83-7.4-25.72-9.44-28.89C294.97,369.93,294.97,369.76,295.1,369.64z"/>
		<path class="st5" d="M315.3,383.59c1.36,1.33,2.99,1.61,4.61-0.04c3.28-3.34,2.74-8.29,1.53-12.13l1.37-1.4
			c1.9,5.52,3.09,12.51-1.73,17.42c-2.66,2.71-6.51,3.41-9.99-0.67c-4.19-4.87-5.67-14.79-0.85-19.7c2.41-2.45,4.8-2.18,6.37-0.39
			c2.37,2.83,2.72,9.08-1.8,14.36C313.99,382.05,314.54,382.84,315.3,383.59z M315.05,368.7c-0.59-0.67-1.35-0.83-2.22,0.06
			c-1.79,1.82-1.36,6.97,0.14,10.94c0.21,0.54,0.63,0.62,0.97,0.29c0.08-0.08,0.12-0.13,0.17-0.17
			C316.96,376.07,316.57,370.54,315.05,368.7z"/>
		<path class="st5" d="M327.52,371.15c1.35,1.33,2.99,1.61,4.61-0.04c3.28-3.34,2.74-8.29,1.53-12.13l1.37-1.4
			c1.9,5.52,3.09,12.51-1.73,17.42c-2.66,2.71-6.51,3.41-9.99-0.67c-4.19-4.87-5.67-14.79-0.85-19.7c2.45-2.5,4.68-2.05,6.24-0.52
			c2.28,2.24,3.88,6.72,1.92,8.71c-1.12,1.14-2.22,0.31-2.77-0.48c1.24-1.86,0.38-4.95-0.6-6.08c-0.59-0.67-1.35-0.83-2.22,0.06
			C322.13,359.29,324.9,368.58,327.52,371.15z"/>
		<path class="st5" d="M339.74,358.72c1.35,1.33,2.99,1.61,4.61-0.04c3.28-3.34,2.74-8.29,1.53-12.13l1.37-1.4
			c1.9,5.52,3.09,12.51-1.73,17.42c-2.66,2.71-6.51,3.41-9.99-0.67c-4.2-4.87-5.67-14.79-0.85-19.7c2.41-2.45,4.8-2.18,6.37-0.39
			c2.37,2.83,2.72,9.08-1.8,14.36C338.42,357.18,338.97,357.97,339.74,358.72z M339.48,343.83c-0.59-0.66-1.35-0.83-2.22,0.06
			c-1.79,1.82-1.36,6.97,0.14,10.94c0.21,0.54,0.63,0.62,0.97,0.29c0.08-0.09,0.12-0.13,0.17-0.17
			C341.39,351.2,341,345.67,339.48,343.83z"/>
		<path class="st5" d="M339.47,324.47c0.04-0.04,0.12-0.13,0.17-0.17c1.95-1.99,4.22-1.42,5.24-0.09c1.87,2.5,6.03,22.21,7.59,24.25
			c0.43,0.58,0.85,0.83,1.22,0.45c1.91-1.94,0.77-7.47-0.09-10.23l1.37-1.4c1.68,4.98,3.25,12.26-0.94,16.53
			c-1.29,1.31-3.42,1.96-5.16,0.01c-3.31-3.83-7.4-25.72-9.44-28.89C339.35,324.76,339.35,324.59,339.47,324.47z"/>
		<path class="st5" d="M347.2,316.6c0.04-0.04,0.12-0.13,0.17-0.17c1.95-1.99,4.22-1.42,5.24-0.09c1.87,2.5,6.03,22.21,7.6,24.25
			c0.43,0.58,0.85,0.83,1.22,0.45c1.91-1.95,0.77-7.47-0.09-10.23l1.37-1.4c1.68,4.98,3.26,12.26-0.94,16.53
			c-1.29,1.31-3.42,1.96-5.16,0c-3.31-3.83-7.4-25.72-9.44-28.89C347.08,316.89,347.07,316.72,347.2,316.6z"/>
	</g>
</g>
<g id="traço">
	<path class="st3" d="M664.76,127.93c-0.46-3.14-1.54-6.35-3.38-9.14c-1.83-2.8-4.36-5.1-7.11-6.74c-2.77-1.63-5.73-2.66-8.68-3.33
		c-5.93-1.3-11.83-1.22-17.62-0.31c-0.73,0.11-1.44,0.26-2.18,0.41c-0.76,0.17-1.53,0.34-2.15,0.52l-4.01,1.1l-7.89,2.17l-7.89,2.17
		l-3.94,1.11l-3.97,1.02l-15.88,4.06l-7.94,2.03l-7.96,1.89l-15.95,3.76c-5.29,1.36-10.68,2.39-16.04,3.49l-4.47,0.94
		c-0.45-0.52-0.92-1.01-1.45-1.46c-1.42-1.25-3.02-2.19-4.58-2.9c-1.54-0.71-3.13-1.23-4.25-1.7l-0.03-0.01l-0.3-0.12
		c-0.8-0.32-1.57-0.54-2.4-0.91c-0.83-0.38-1.65-0.71-2.48-1.14c-1.66-0.82-3.32-1.71-4.96-2.63c-3.29-1.87-6.55-3.87-9.77-5.92
		c-3.24-2.04-6.45-4.13-9.65-6.27c-3.18-2.15-6.37-4.3-9.52-6.48l-0.68-0.47l-0.63,0.33c-1.6,0.83-3.18,1.68-4.77,2.52
		c-2.75-2.25-5.74-4.7-8.99-7.37c-4.6-3.76-9.69-7.92-15.24-12.45c-5.55-4.53-11.56-9.41-18.02-14.58
		c-12.89-10.39-27.56-21.95-43.72-34.39c-8.13-6.16-16.62-12.56-25.61-18.99c-2.27-1.59-4.48-3.27-6.87-4.81
		c-2.39-1.56-4.65-3.19-7.25-4.69l-1.9-1.15l-0.95-0.58l-0.48-0.29c0.16,0.08-0.49-0.27-0.51-0.27l-0.49-0.22
		c-0.08-0.04-0.33-0.13-0.49-0.19c-0.35-0.12-0.77-0.26-1.09-0.33c-0.56-0.11-1.15-0.22-1.65-0.25c-1.07-0.1-2.01-0.04-2.93,0.04
		c-3.6,0.42-6.55,1.48-9.45,2.65c-11.37,4.85-21.44,11.58-31.57,18.71c-10.07,7.18-19.95,14.97-29.8,23.1
		c-19.68,16.29-39.39,33.77-59.16,51.8c-4.95,4.5-9.88,9.06-14.8,13.66c-4.95,4.57-9.87,9.2-14.77,13.87
		c-9.87,9.27-19.66,18.72-29.28,28.34c-19.31,19.17-38.1,38.93-55.48,59.37c-17.42,20.42-33.73,41.25-48.51,62.19
		c-7.41,10.45-14.3,21.03-20.71,31.6c-3.2,5.29-6.3,10.56-9.24,15.85c-1.45,2.65-2.88,5.3-4.26,7.95l-1.04,1.98l-0.26,0.51
		l-0.11,0.25l-0.22,0.5l-0.45,1.01c-0.34,0.97-0.66,2.22-0.9,3.34c-0.12,0.99-0.18,1.92-0.25,2.88c0.08,7.42,2.55,13.21,4.99,18.64
		c2.52,5.42,5.4,10.39,8.38,15.14c5.99,9.47,12.28,18.13,18.44,26.31c12.42,16.29,24.3,30.73,34.96,43.42
		c5.31,6.36,10.34,12.25,15,17.69c0.41,0.48,0.8,0.93,1.2,1.4c-1.25,1.3-2.49,2.6-3.67,3.96l-3.39,3.85l-1.69,1.92l-1.62,1.99
		c-2.15,2.67-4.36,5.29-6.35,8.09c-1.02,1.39-2.06,2.75-3.06,4.16l-2.88,4.3c-0.48,0.72-0.97,1.43-1.43,2.16l-1.34,2.23
		c-0.88,1.49-1.81,2.95-2.63,4.49l-2.42,4.63c-0.81,1.54-1.47,3.17-2.2,4.76c-2.79,6.42-5.02,13.21-6.04,20.38
		c-0.56,3.57-0.66,7.26-0.46,10.96c0.27,3.71,1.05,7.46,2.44,11.08c1.41,3.61,3.49,7.13,6.67,10l1.22,1.05
		c0.44,0.33,0.92,0.63,1.39,0.94c0.9,0.65,2.04,1.09,3.14,1.56c0.72,0.22,1.47,0.4,2.21,0.54l0.54,0.09l0.32,0.02l0.63,0.04
		l0.32,0.02l0.16,0.01h0.6l0.49,0c0.34,0,0.64-0.02,1.03,0.02c2.99,0.16,6.33,0.62,9.6,1.09l9.95,1.54
		c6.67,1.06,13.39,2.07,20.15,2.98c13.51,1.78,27.19,3.15,41.12,2.97c6.96-0.11,14-0.69,21.06-2.17c3.53-0.68,7.05-1.78,10.54-3.09
		c3.33-1.35,6.59-3.1,9.64-5.32c9.94-6.27,19.83-12.62,29.72-18.98l14.86-9.54c2.46-1.62,4.99-3.13,7.39-4.83l7.26-5.03l29.04-20.11
		l7.25-5.04l7.1-5.25l14.17-10.54l14.16-10.55c2.38-1.73,4.67-3.59,6.97-5.42l6.9-5.51l13.79-11.03l6.88-5.53l6.74-5.71l13.46-11.42
		c2.23-1.92,4.51-3.78,6.7-5.74l6.6-5.87c4.38-3.93,8.85-7.75,13.16-11.77c4.29-4.01,8.64-7.93,12.86-12.06l24.94-21.26
		c8.31-7.13,16.68-14.2,24.96-21.37l24.87-21.48c8.24-7.21,16.56-14.35,24.75-21.63c8.24-7.23,16.47-14.46,24.6-21.83
		c8.16-7.33,16.2-14.8,24.21-22.3c7.98-7.53,15.89-15.16,23.61-22.99c7.76-7.79,15.3-15.8,22.67-23.99
		c7.35-8.21,14.43-16.68,21.22-25.42c6.77-8.76,13.12-17.89,18.77-27.56c2.79-4.86,5.42-9.85,7.63-15.11
		c2.21-5.25,4.02-10.8,4.82-16.75C665.14,134.18,665.22,131.08,664.76,127.93z M477.29,105.97c5.73,4.85,11.63,9.46,17.65,13.98
		c3.13,2.29,6.32,4.53,9.59,6.68c1.65,1.07,3.32,2.11,5.06,3.11c0.85,0.51,1.79,0.96,2.69,1.44c0.9,0.48,1.96,0.87,2.94,1.29
		l-0.33-0.13c1.65,0.78,2.92,1.25,4.1,1.87c0.3,0.15,0.55,0.33,0.83,0.5c0.54,0.32,1.03,0.67,1.48,1.03
		c0.22,0.18,0.47,0.35,0.67,0.55c0.83,0.78,1.46,1.69,1.92,2.73c0.51,1.01,0.77,2.2,0.98,3.41c0.33,2.49,0.19,5.21-0.28,7.96
		c-0.47,2.75-1.14,5.53-2.04,8.29c-1.75,5.52-4.08,10.97-6.61,16.32c-2.47,5.39-5.32,10.65-8.17,15.9
		c-2.93,5.22-5.97,10.38-9.08,15.52c-3.08,5.15-6.27,10.26-9.51,15.33l-4.81,7.61l-4.95,7.62c-3.26,5.11-6.49,10.24-9.85,15.23
		l-4.95,7.57c-1.64,2.53-3.3,5.05-5.03,7.53l-10.26,14.94l-10.72,14.62l-2.72,3.63l-2.81,3.56l-5.63,7.1l-5.71,7.05l-5.91,6.88
		l-5.97,6.82c-2.01,2.26-3.95,4.57-6.05,6.75c-4.11,4.43-8.32,8.78-12.47,13.17l-3.13,3.28l-3.25,3.16l-6.51,6.31
		c-4.37,4.18-8.61,8.48-13.14,12.48l-13.43,12.16l-2.93,2.64c-10.22,5.5-20.47,10.97-30.64,16.58
		c-11.03,6.07-22.13,12.03-33.09,18.23c-10.95,6.21-21.84,12.54-32.75,18.83c-10.93,6.26-21.67,12.84-32.47,19.31l-32.36,19.51
		l-16.04,9.98l-15.97,10.09l-15.97,10.09l-3.99,2.52l-1.37,0.86c-3.81-4.5-7.64-8.99-11.56-13.42c-0.79-1.06-1.71-2.29-2.79-3.75
		c-1.49-1.97-3.26-4.31-5.27-6.98c0.83-0.21,1.8-0.47,2.93-0.85c3.82-1.14,9.3-3.2,16.03-6.38c3.38-1.56,7.03-3.46,10.96-5.61
		c1.98-1.05,3.97-2.25,6.08-3.44c2.09-1.22,4.2-2.55,6.42-3.89c8.79-5.44,18.37-12.08,28.56-19.65c10.15-7.63,20.89-16.2,31.9-25.66
		c11.02-9.45,22.3-19.8,33.59-30.88c11.33-11.04,22.76-22.71,34.14-34.78c2.84-3.02,5.68-6.07,8.51-9.14c2.79-3.1,5.6-6.22,8.4-9.33
		c5.53-6.32,11.05-12.68,16.5-19.1c10.9-12.85,21.74-25.71,32.55-38.25c10.74-12.6,21.61-24.75,32.06-36.59
		c10.47-11.83,20.48-23.39,29.37-34.84c8.95-11.41,16.74-22.7,23.88-33.16c7.01-10.55,13.21-20.38,18.33-29.32
		c2.6-4.45,4.92-8.67,7-12.62c2.08-3.94,3.97-7.58,5.54-10.93c3.25-6.64,5.46-12.04,6.96-15.71c0.25-0.67,0.47-1.25,0.68-1.81
		c0.44-1.17,0.78-2.08,1.02-2.72c0.28-0.74,0.43-1.14,0.43-1.14c0.08-0.21,0-0.46-0.21-0.58c-0.23-0.13-0.52-0.05-0.64,0.18
		c0,0-0.16,0.28-0.46,0.82c-0.4-0.33-0.83-0.68-1.24-1.02C475.07,106.88,476.18,106.43,477.29,105.97z M107.34,493.77
		c0.03,0.3,0.09,0.61,0.26,0.97c0.09,0.19,0.12,0.31,0.28,0.53c0.15,0.21,0.32,0.4,0.5,0.58c0.08,0.07,0.23,0.2,0.25,0.21l0.08,0.06
		l0.16,0.12c0.54,0.39,1.25,1.19,1.94,1.98c0.69,0.78,1.37,1.61,2.05,2.44c1.36,1.66,2.7,3.35,4.03,5.05
		c4.07,5.24,8.11,10.52,12.12,15.83c-1.75,1.3-3.44,2.57-5.17,3.85c-10.01,7.42-20.16,14.68-30.86,20.24
		c-2.67,1.37-5.36,2.64-8.05,3.65c-2.68,0.99-5.4,1.71-7.8,1.85c-1.14-0.01-2.27-0.03-3.05-0.34c-0.88-0.21-1.39-0.67-1.96-1.22
		c-0.22-0.36-0.55-0.61-0.72-1.11c-0.11-0.22-0.22-0.44-0.34-0.66c-0.02-0.04-0.02-0.04-0.02-0.05l-0.07-0.23l-0.18-0.56l-0.35-1.11
		l-0.14-0.82l-0.17-0.82l-0.1-1c-0.25-2.66-0.17-5.51,0.26-8.39c0.41-2.88,1.01-5.79,1.86-8.66c1.64-5.76,3.9-11.45,6.58-16.95
		c5.26-10.83,11.9-21.09,19.41-30.68c0.75,0.86,1.49,1.72,2.22,2.54c2.86,3.27,5.48,6.27,7.88,9.01c-0.11,0.22-0.22,0.45-0.32,0.69
		c-0.26,0.59-0.51,1.26-0.6,2.2C107.32,493.21,107.29,493.44,107.34,493.77z M77.34,444.6c-9.97-13.18-21.31-27.99-33-44.52
		c-5.86-8.24-11.81-16.93-17.32-26.17c-2.71-4.63-5.37-9.38-7.56-14.27c-1.13-2.44-2.03-4.92-2.8-7.39
		c-0.66-2.44-1.14-4.9-1.09-7.03c0.06-0.49,0.1-1.02,0.14-1.48c0.13-0.3,0.1-0.49,0.2-0.92l0.46-1l0.23-0.5l0.04-0.08
		c0.03-0.05,0.09-0.17,0.08-0.15l1.04-1.92c1.39-2.57,2.82-5.14,4.28-7.71c2.9-5.16,5.9-10.36,9.04-15.55
		c6.28-10.39,13.08-20.78,20.14-31.26c14.19-20.92,30.03-41.79,46.87-62.4c4.2-5.16,8.48-10.3,12.79-15.43
		c4.3-5.15,8.66-10.27,13.08-15.36c8.78-10.23,17.78-20.36,26.94-30.35c9.19-9.96,18.54-19.77,28.02-29.4
		c4.78-4.77,9.58-9.5,14.41-14.17c4.85-4.65,9.75-9.22,14.65-13.75c19.66-18.05,39.88-34.89,60.3-49.96
		c10.21-7.53,20.43-14.68,30.65-21.24c5.1-3.29,10.22-6.41,15.34-9.29c5.1-2.89,10.25-5.57,15.35-7.54
		c2.52-0.94,5.11-1.78,7.24-1.99c1.01-0.11,1.97,0.03,2.03,0.11l0.1,0.05c-0.01,0,0.01,0.01,0.1,0.06l0.44,0.27l0.87,0.53l1.74,1.06
		c2.31,1.35,4.61,3.02,6.88,4.52c2.28,1.51,4.53,3.11,6.77,4.66c8.95,6.22,17.48,12.49,25.66,18.52
		c16.38,12.08,31.39,23.15,44.7,32.96c6.65,4.93,12.9,9.49,18.7,13.69c5.79,4.22,11.11,8.08,15.96,11.53
		c2.96,2.11,5.7,4.06,8.27,5.87c0.52,0.37,1.06,0.75,1.57,1.11c1.08,0.76,2.13,1.5,3.14,2.2c-0.33,0.57-0.68,1.2-1.09,1.92
		c-1.99,3.39-4.87,8.37-8.75,14.59c-0.95,1.56-2.01,3.18-3.08,4.89c-1.08,1.71-2.2,3.51-3.41,5.35c-2.4,3.7-5.05,7.67-7.87,11.91
		c-5.72,8.44-12.23,17.91-19.59,28.08c-7.22,10.26-15.45,21.09-23.89,32.74c-8.53,11.59-17.3,24.01-26.67,36.66
		c-9.37,12.65-19.45,25.44-30.33,37.88c-10.8,12.51-22.34,24.73-34.18,36.63c-11.81,11.93-23.87,23.61-35.57,35.23
		c-11.74,11.6-23.46,22.82-34.95,33.52c-11.5,10.68-22.67,20.93-33.37,30.52c-10.7,9.59-20.9,18.55-30.57,26.5
		c-9.61,8.03-18.66,15.09-26.82,21.13c-4.12,2.97-7.98,5.74-11.62,8.2c-3.64,2.46-7.05,4.62-10.16,6.52
		c-6.23,3.77-11.31,6.45-14.88,8.04c-1.24,0.62-2.3,1.05-3.14,1.4c-0.47-0.62-0.94-1.25-1.44-1.9c-0.81-1.07-1.65-2.19-2.52-3.34
		c-2.02-2.67-4.19-5.55-6.55-8.67c-0.84-1.1-1.7-2.24-2.58-3.39c-1.1-1.45-2.24-2.94-3.41-4.47c-0.63-0.83-1.28-1.68-1.93-2.54
		c-1.06-1.39-2.15-2.82-3.26-4.28C87.57,458.04,82.64,451.57,77.34,444.6z M657.08,136.13c-0.76,4.9-2.45,9.83-4.51,14.64
		c-2.08,4.81-4.6,9.51-7.31,14.11c-5.47,9.19-11.78,17.98-18.4,26.54c-6.59,8.6-13.59,16.9-20.71,25.13
		c-7.08,8.26-14.49,16.25-21.87,24.28c-7.4,8.01-14.99,15.86-22.6,23.7c-7.65,7.8-15.37,15.54-23.21,23.16
		c-7.82,7.64-15.72,15.21-23.7,22.69c-8.04,7.42-16.07,14.85-24.26,22.1c-8.21,7.24-16.39,14.51-24.73,21.58l-12.52,10.62
		c-4.17,3.54-8.37,7.05-12.6,10.52c-8.43,6.98-16.91,13.9-25.46,20.72l-0.03,0.02l-0.08,0.07c-4.28,3.94-8.77,7.74-13.16,11.59
		c-4.4,3.85-8.98,7.53-13.46,11.3l-6.76,5.61c-2.25,1.87-4.59,3.64-6.88,5.47l-13.8,10.88l-6.9,5.43l-7.04,5.26l-14.05,10.55
		l-7.02,5.28c-2.34,1.76-4.67,3.53-7.07,5.21l-14.29,10.22l-14.28,10.23l-7.13,5.13l-7.28,4.92l-29.15,19.6l-7.29,4.9
		c-2.41,1.66-4.95,3.13-7.41,4.7l-14.9,9.29c-9.94,6.18-19.87,12.38-29.75,18.65l-0.22,0.14l-0.25,0.18
		c-2.26,1.66-4.83,3.07-7.62,4.2c-2.84,1.05-5.78,1.99-8.89,2.58c-6.17,1.31-12.66,1.8-19.2,1.97c-13.1,0.32-26.41-0.84-39.69-2.44
		c-6.65-0.81-13.29-1.77-19.99-2.7l-10.1-1.35c-3.42-0.41-6.79-0.84-10.55-0.96c-0.45-0.03-0.99-0.01-1.5,0l-0.62,0.02l-0.03,0
		l-0.32-0.01l-0.63-0.03l-0.32-0.01c-0.06-0.01-0.05-0.04-0.08-0.05c-0.07-0.07-0.15-0.09-0.24-0.08c-0.42-0.23-0.91-0.32-1.38-0.68
		c-0.24-0.16-0.49-0.28-0.73-0.45l-0.7-0.59c-1.89-1.61-3.47-4-4.55-6.65c-2.18-5.33-2.68-11.63-1.93-17.84
		c0.71-6.24,2.53-12.47,4.95-18.5c2.38-6.05,5.53-11.85,8.92-17.51l2.61-4.22c0.91-1.38,1.87-2.74,2.8-4.11
		c1.82-2.77,3.88-5.4,5.87-8.06c2.95-3.85,6.05-7.61,9.24-11.3c0.69,0.8,1.38,1.6,2.04,2.38c-0.07,0.08-0.14,0.16-0.21,0.24
		c-8.3,9.68-15.87,20.1-21.91,31.53c-3.02,5.71-5.65,11.67-7.67,17.95c-1.03,3.12-1.83,6.37-2.42,9.7
		c-0.61,3.32-0.84,6.8-0.58,10.41l0.1,1.35l0.26,1.5l0.29,1.5l0.33,1.15l0.16,0.57l0.08,0.28l0.04,0.14c0-0.01,0.19,0.57,0.15,0.41
		l0.67,1.47c0.39,0.98,1.12,1.93,1.8,2.85c0.31,0.48,0.82,0.85,1.24,1.27c0.46,0.38,0.86,0.85,1.39,1.13
		c0.5,0.32,1.02,0.62,1.54,0.91c0.52,0.31,1.06,0.44,1.59,0.65c2.17,0.81,4.25,0.91,6.24,0.94c3.9-0.14,7.33-1.06,10.58-2.14
		c3.23-1.12,6.27-2.46,9.23-3.91c11.72-5.91,22.2-13.25,32.49-20.65c1.79-1.29,3.57-2.59,5.33-3.86c0.75-0.54,1.51-1.09,2.24-1.61
		l0.8-0.55l1-0.62l1.71-1.09l0.28-0.17l3.98-2.53l15.91-10.1l15.91-10.11l15.84-10.22l31.97-19.98
		c10.67-6.64,21.29-13.37,32.08-19.81c10.73-6.54,21.48-13.05,32.17-19.67l32.27-19.52c2.64-1.62,5.29-3.22,7.95-4.82
		c8.13-4.87,16.31-9.65,24.49-14.45l3.76-2.21l12.51-7.34c5.44-3.16,10.93-6.23,16.39-9.34c10.92-6.23,21.94-12.31,32.93-18.44
		c11.07-5.98,21.99-12.27,33.07-18.24l0.08-0.04l0.13-0.1l33.34-25.56c11.05-8.6,22.12-17.19,33.01-26.02
		c5.45-4.41,10.88-8.84,16.24-13.36c5.35-4.54,10.73-9.03,15.98-13.68c5.26-4.64,10.49-9.32,15.68-14.04
		c5.15-4.77,10.27-9.58,15.32-14.46c5.06-4.87,10.07-9.8,15.01-14.81c4.92-5.03,9.76-10.14,14.49-15.37
		c9.47-10.43,18.59-21.25,26.54-33.07c3.96-5.91,7.64-12.08,10.42-18.81c1.37-3.37,2.52-6.9,3.08-10.64
		c0.5-3.72,0.4-7.86-1.48-11.54c-1.87-3.68-5.33-6.24-8.85-7.5c-3.54-1.37-7.2-1.79-10.78-1.94c-7.18-0.21-14.21,0.9-21.04,2.46
		l-0.01,0c-0.23,0.05-0.39,0.28-0.36,0.52c0.03,0.26,0.27,0.44,0.53,0.4c6.91-0.93,13.9-1.38,20.69-0.69
		c3.37,0.39,6.72,1.08,9.65,2.42c2.96,1.29,5.32,3.42,6.48,6.09c1.17,2.69,1.11,5.88,0.54,9.01c-0.64,3.15-1.82,6.28-3.23,9.31
		c-2.89,6.07-6.69,11.8-10.69,17.37c-4.04,5.56-8.43,10.9-12.97,16.12c-4.54,5.23-9.22,10.35-14.01,15.37
		c-4.77,5.04-9.71,9.94-14.65,14.83c-4.94,4.89-9.96,9.72-15.03,14.49c-5.07,4.78-10.21,9.48-15.36,14.17
		c-5.14,4.71-10.31,9.39-15.51,14.03l-15.62,13.93l-15.7,13.86l-15.78,13.79c-5.26,4.6-10.57,9.13-15.88,13.68l-16.02,13.54
		l-8.04,6.73l-8.04,6.56c-10.8,6.34-21.64,12.61-32.6,18.69l-16.53,9.1c-5.51,3.04-11.03,6.05-16.57,9.03l-17.15,9.22
		c4.66-4.7,9.29-9.44,13.76-14.33l6.24-6.64l3.12-3.31l3.05-3.38c4.08-4.5,8.1-9.04,12.22-13.49c4.1-4.47,7.95-9.16,11.97-13.71
		l6.01-6.83l5.81-7l5.88-6.95l2.95-3.47l2.86-3.54l11.52-14.12l11.24-14.35c1.89-2.38,3.72-4.81,5.53-7.25l5.46-7.32
		c3.66-4.88,7.16-9.82,10.64-14.78l5.18-7.46l5.12-7.6c3.31-5.11,6.58-10.26,9.75-15.48c3.17-5.22,6.14-10.57,9.08-15.94
		c2.85-5.43,5.69-10.88,8.19-16.53c2.48-5.66,4.75-11.46,6.47-17.54c0.88-3.03,1.55-6.17,2-9.4c0.45-3.22,0.51-6.64-0.13-10.13
		c-0.42-2.2-1.27-4.52-2.59-6.55l3.56-0.48c5.42-0.76,10.85-1.45,16.25-2.48l16.21-2.93l8.11-1.48l8.05-1.7
		c10.73-2.28,21.49-4.42,32.15-7.14l8.01-1.94l3.94-0.95c0.7-0.18,1.27-0.28,1.85-0.39c0.6-0.1,1.24-0.21,1.86-0.29
		c5.04-0.65,10.27-0.49,15.02,0.69c2.37,0.59,4.62,1.45,6.54,2.64c1.92,1.21,3.49,2.73,4.62,4.54
		C657.43,126.42,657.77,131.27,657.08,136.13z M342.18,44.84c2.53,2.56,6.09,6.31,9.96,11.12c1.95,2.4,3.96,5.08,5.95,8
		c1.97,2.94,3.98,6.08,5.77,9.5c1.79,3.41,3.52,7.01,4.86,10.82c1.36,3.8,2.46,7.76,3.16,11.8c0.69,4.04,0.97,8.14,0.83,12.16
		c-0.09,4.03-0.82,7.96-1.74,11.68c-0.26,0.93-0.52,1.84-0.77,2.75c-0.29,0.9-0.63,1.77-0.93,2.64c-0.57,1.76-1.4,3.38-2.09,5
		c-0.77,1.59-1.6,3.09-2.38,4.56c-0.88,1.41-1.69,2.79-2.54,4.08c-0.89,1.26-1.74,2.47-2.55,3.61c-0.88,1.1-1.71,2.14-2.49,3.12
		c-1.57,1.95-3.11,3.51-4.29,4.87c-2.55,2.55-4.01,4-4.01,4l0.37,0.39c0,0,0.43-0.3,1.23-0.87c0.79-0.58,2.01-1.38,3.47-2.51
		c1.38-1.2,3.2-2.57,5.03-4.4c0.92-0.92,1.9-1.89,2.94-2.92c0.98-1.09,1.95-2.27,3.01-3.5c1-1.26,1.99-2.63,3.04-4.04
		c0.97-1.46,1.92-3.02,2.85-4.65c0.85-1.68,1.84-3.35,2.58-5.21c0.39-0.92,0.82-1.83,1.16-2.8c0.32-0.97,0.64-1.95,0.96-2.94
		c0.35-0.98,0.57-2.02,0.83-3.04c0.24-1.03,0.55-2.07,0.7-3.13c0.18-1.06,0.36-2.14,0.55-3.21c0.09-1.09,0.17-2.18,0.26-3.28
		c0.22-4.4-0.01-8.89-0.69-13.3c-0.82-4.38-2.08-8.63-3.6-12.67c-0.4-1-0.8-2-1.2-2.99c-0.46-0.96-0.92-1.91-1.38-2.86
		c-0.44-0.96-0.98-1.85-1.46-2.76c-0.48-0.91-0.98-1.81-1.51-2.67c-1.99-3.53-4.34-6.66-6.58-9.56c-2.25-2.9-4.57-5.47-6.8-7.73
		c-1.09-1.15-2.19-2.2-3.23-3.2c-1.06-0.98-2.1-1.88-3.05-2.73c-1.93-1.69-3.69-3.07-5.17-4.18c-1.44-1.15-2.67-1.91-3.47-2.47
		c-0.81-0.55-1.24-0.85-1.24-0.85l-0.37,0.39c0,0,0.37,0.36,1.07,1.03C339.9,42.57,340.93,43.54,342.18,44.84z M108.79,256.81
		c4.43-4.48,8.95-9.05,13.55-13.71c9.17-9.34,18.7-18.92,28.47-28.58c9.77-9.66,19.62-19.55,29.6-29.31
		c10.07-9.69,19.92-19.64,29.73-29.28c9.78-9.68,19.44-19.16,28.9-28.24c4.71-4.56,9.3-9.08,13.78-13.53
		c2.23-2.23,4.45-4.43,6.63-6.61c2.15-2.21,4.27-4.4,6.36-6.56c8.31-8.69,15.89-17.17,22.8-25.07c6.86-7.95,13.04-15.35,18.25-22.12
		c2.63-3.37,5.01-6.59,7.13-9.64c2.13-3.04,4.02-5.89,5.54-8.61c0.76-1.36,1.45-2.67,2.01-3.97c0.54-1.31,1.05-2.57,1.03-4.07
		c-0.01-0.37-0.09-0.8-0.32-1.2c-0.21-0.41-0.63-0.72-1-0.86c-0.78-0.28-1.4-0.17-1.95-0.08c-1.09,0.22-1.96,0.58-2.73,0.93
		c-1.52,0.71-2.6,1.36-3.34,1.79c-0.73,0.44-1.1,0.67-1.1,0.67l0.26,0.48c0,0,0.4-0.18,1.16-0.54c0.76-0.34,1.91-0.86,3.43-1.38
		c0.75-0.25,1.62-0.52,2.52-0.61c0.44-0.05,0.91-0.02,1.16,0.12c0.22,0.13,0.27,0.26,0.27,0.72c-0.06,0.89-0.56,2.06-1.16,3.2
		c-0.6,1.16-1.36,2.36-2.19,3.6c-3.36,4.99-8.06,10.71-13.52,17.18c-5.52,6.44-11.85,13.62-18.88,21.35
		c-7,7.77-14.72,16.06-22.8,24.91c-2.02,2.22-4.06,4.46-6.13,6.74c-2.06,2.29-4.14,4.61-6.24,6.95c-4.24,4.66-8.58,9.41-12.99,14.25
		c-8.81,9.68-18.21,19.42-28.04,29.02c-4.91,4.81-9.94,9.57-15.05,14.28c-5.14,4.69-10.34,9.31-15.6,13.93
		c-10.5,9.24-20.89,18.61-30.87,28.1c-9.98,9.48-19.71,18.9-29.08,28.07c-4.7,4.57-9.22,9.16-13.67,13.63
		c-4.46,4.46-8.75,8.89-12.92,13.21c-8.37,8.61-16.16,16.88-23.36,24.49c-7.16,7.66-13.72,14.67-19.47,20.94
		c-5.76,6.26-10.86,11.65-15.03,16.11c-4.18,4.41-7.53,7.95-10.04,9.81c-0.08,0.05-0.14,0.08-0.21,0.12
		c0.03-0.13,0.08-0.26,0.12-0.37c0.22-0.55,0.45-1.02,0.64-1.39c0.39-0.74,0.6-1.12,0.6-1.12l-0.46-0.28c0,0-0.24,0.37-0.71,1.08
		c-0.23,0.36-0.51,0.81-0.81,1.4c-0.12,0.33-0.34,0.55-0.33,1.21c-0.01,0.18,0.25,0.55,0.54,0.57c0.23,0.03,0.38-0.01,0.51-0.05
		c0.24-0.08,0.45-0.18,0.64-0.29c1.51-0.88,3.05-2.19,4.88-3.73c1.82-1.55,3.86-3.37,6.13-5.44c4.55-4.11,9.87-9.3,16.01-15.21
		c6.15-5.9,12.97-12.66,20.43-20.03c7.41-7.4,15.43-15.42,23.92-23.91C100.01,265.64,104.35,261.27,108.79,256.81z"/>
</g>
</svg>
